<svg width="32" height="32" viewBox="0 0 32 32" fill="none" xmlns="http://www.w3.org/2000/svg">
<rect width="32" height="32" rx="3.75" fill="#242424"/>
<circle cx="16" cy="16" r="14" fill="#16AC16"/>
<circle cx="16" cy="16" r="13" fill="#242424"/>
<path d="M7.09 20.42L6.98 19.4C7.13667 19.4 7.25833 19.375 7.345 19.325C7.43167 19.2783 7.49167 19.1967 7.525 19.08C7.56167 18.9633 7.58 18.8033 7.58 18.6V13H8.82V19.11C8.82 19.46 8.76833 19.7283 8.665 19.915C8.56167 20.105 8.41 20.2367 8.21 20.31C8.01 20.3833 7.76667 20.42 7.48 20.42H7.09ZM7.58 12.24V11H8.82V12.24H7.58ZM11.9623 20.52C11.4957 20.52 11.0873 20.4617 10.7373 20.345C10.3907 20.2317 10.1207 20.0683 9.92734 19.855C9.73734 19.6417 9.64234 19.3867 9.64234 19.09C9.64234 18.84 9.71068 18.6167 9.84734 18.42C9.98734 18.2267 10.189 18.0567 10.4523 17.91C10.319 17.83 10.2123 17.73 10.1323 17.61C10.0523 17.49 10.0123 17.3533 10.0123 17.2C10.0123 17.04 10.0573 16.9017 10.1473 16.785C10.2407 16.665 10.3623 16.57 10.5123 16.5C10.259 16.32 10.0673 16.09 9.93734 15.81C9.80734 15.5267 9.74234 15.22 9.74234 14.89C9.74234 14.53 9.82068 14.2 9.97734 13.9C10.134 13.5967 10.3623 13.355 10.6623 13.175C10.9657 12.9917 11.3357 12.9 11.7723 12.9C11.999 12.9 12.2073 12.9283 12.3973 12.985C12.5907 13.0417 12.7623 13.12 12.9123 13.22C13.0123 13.1633 13.1573 13.1133 13.3473 13.07C13.5373 13.0233 13.749 13 13.9823 13C14.039 13 14.0923 13 14.1423 13C14.1957 13 14.249 13 14.3023 13L14.2223 13.78C14.149 13.78 14.074 13.78 13.9973 13.78C13.924 13.78 13.849 13.78 13.7723 13.78C13.7423 13.78 13.7023 13.78 13.6523 13.78C13.6023 13.78 13.549 13.7833 13.4923 13.79C13.5923 13.9433 13.6673 14.115 13.7173 14.305C13.7673 14.495 13.7923 14.69 13.7923 14.89C13.7923 15.25 13.714 15.5817 13.5573 15.885C13.404 16.185 13.1773 16.4267 12.8773 16.61C12.5773 16.79 12.209 16.88 11.7723 16.88C11.679 16.88 11.589 16.8733 11.5023 16.86C11.4157 16.8467 11.329 16.83 11.2423 16.81C11.169 16.84 11.1323 16.8933 11.1323 16.97C11.1323 17.06 11.1873 17.1283 11.2973 17.175C11.4073 17.2217 11.579 17.2633 11.8123 17.3L12.6723 17.41C13.209 17.48 13.629 17.6317 13.9323 17.865C14.239 18.0983 14.3923 18.43 14.3923 18.86C14.3923 19.1933 14.2957 19.4833 14.1023 19.73C13.9123 19.98 13.6357 20.1733 13.2723 20.31C12.909 20.45 12.4723 20.52 11.9623 20.52ZM12.0123 19.58C12.4323 19.58 12.7507 19.5283 12.9673 19.425C13.184 19.3217 13.2923 19.1633 13.2923 18.95C13.2923 18.76 13.2157 18.62 13.0623 18.53C12.9123 18.44 12.6723 18.37 12.3423 18.32L11.2473 18.16C11.084 18.2233 10.9473 18.31 10.8373 18.42C10.7273 18.5333 10.6723 18.68 10.6723 18.86C10.6723 19.1033 10.7907 19.2833 11.0273 19.4C11.264 19.52 11.5923 19.58 12.0123 19.58ZM11.7723 15.96C12.069 15.96 12.2923 15.8633 12.4423 15.67C12.5957 15.4733 12.6723 15.2133 12.6723 14.89C12.6723 14.5633 12.5957 14.3033 12.4423 14.11C12.2923 13.9167 12.069 13.82 11.7723 13.82C11.4723 13.82 11.2457 13.9167 11.0923 14.11C10.939 14.3033 10.8623 14.5633 10.8623 14.89C10.8623 15.2133 10.939 15.4733 11.0923 15.67C11.2457 15.8633 11.4723 15.96 11.7723 15.96ZM14.9921 18V13H16.0521L16.1321 13.73L15.9521 13.51C16.1421 13.36 16.3688 13.225 16.6321 13.105C16.8988 12.9817 17.2088 12.92 17.5621 12.92C17.8288 12.92 18.0638 12.96 18.2671 13.04C18.4738 13.1167 18.6504 13.2283 18.7971 13.375C18.9438 13.5183 19.0621 13.69 19.1521 13.89L18.8521 13.82C19.0121 13.5333 19.2454 13.3117 19.5521 13.155C19.8621 12.9983 20.2121 12.92 20.6021 12.92C21.0621 12.92 21.4371 13.015 21.7271 13.205C22.0171 13.395 22.2304 13.6633 22.3671 14.01C22.5038 14.3533 22.5721 14.7567 22.5721 15.22V18H21.3321V15.31C21.3321 14.8433 21.2588 14.4983 21.1121 14.275C20.9688 14.0517 20.7288 13.94 20.3921 13.94C20.2254 13.94 20.0788 13.97 19.9521 14.03C19.8288 14.0867 19.7254 14.1717 19.6421 14.285C19.5621 14.395 19.5021 14.53 19.4621 14.69C19.4221 14.8467 19.4021 15.0233 19.4021 15.22V18H18.1621V15.31C18.1621 15 18.1288 14.7433 18.0621 14.54C17.9988 14.3367 17.8954 14.1867 17.7521 14.09C17.6121 13.99 17.4288 13.94 17.2021 13.94C16.9121 13.94 16.6738 14.0083 16.4871 14.145C16.3038 14.2783 16.1421 14.46 16.0021 14.69L16.2321 14.02V18H14.9921ZM23.6835 18V13H24.9235V18H23.6835ZM23.6835 12.24V11H24.9235V12.24H23.6835Z" fill="white"/>
</svg>
